<?xml version="1.0" encoding="UTF-8" standalone="no"?>
<!-- Created with Inkscape (http://www.inkscape.org/) -->

<svg
   width="350"
   height="300"
   viewBox="0 0 700.00002 600"
   version="1.1"
   id="svg1"
   xml:space="preserve"
   xmlns="http://www.w3.org/2000/svg"
   xmlns:svg="http://www.w3.org/2000/svg"><defs
     id="defs1" /><g
     id="g1"
     transform="matrix(0.48251035,0,0,0.48251035,-86.335924,-378.12985)"><g
       id="g371"
       transform="translate(142.37081,595.69956)"><path
         id="rect825"
         style="fill:#f0930d;fill-opacity:0.992157;stroke-width:1.5;stroke-miterlimit:4.8;paint-order:markers fill stroke"
         d="m 46.093113,265.88509 -9.533203,1.00781 v 18.72461 l 30.007813,-3.17383 z m 40.898438,33.07812 -50.431641,5.33203 v 0.86524 l 19.580078,15.83594 51.378902,-5.43164 z m 40.949219,33.11719 -51.378907,5.43359 20.47461,16.5586 51.380857,-5.43164 z m 40.89844,33.07617 -51.37891,5.4336 20.47461,16.55859 51.38086,-5.43164 z m 40.95117,33.11914 -51.37891,5.4336 20.47461,16.55859 51.37891,-5.43359 z m 40.89844,33.07813 -51.37891,5.43164 20.47461,16.56055 c 17.1267,-1.81062 34.25506,-3.62226 51.38086,-5.4336 z m 40.89843,33.07617 -51.3789,5.43164 20.52734,16.60156 51.37891,-5.43164 z m 40.95118,33.11719 -51.38086,5.43359 20.47656,16.55859 51.37891,-5.43164 z m 40.89843,33.08008 -51.3789,5.43164 20.52539,16.60156 51.38086,-5.4336 z m 40.94922,33.11718 -51.3789,5.43164 20.47656,16.56055 51.3789,-5.43359 z m 40.89844,33.07617 -51.37891,5.43165 20.52735,16.60156 51.3789,-5.43164 z m 40.95117,33.11915 -51.3789,5.43359 20.4746,16.55859 51.37891,-5.43359 z m 40.89844,33.07617 -51.37891,5.43359 20.52735,16.60156 51.3789,-5.43359 z m 40.94922,33.11914 -51.37891,5.43164 20.47656,16.56055 51.37891,-5.4336 z m 40.89843,33.07617 -51.3789,5.43164 20.52734,16.60156 51.37891,-5.43164 z m 40.95118,33.11914 -51.37891,5.43359 20.47461,16.5586 51.37891,-5.4336 z m 40.89843,33.07617 -51.3789,5.4336 20.52734,16.60156 51.37891,-5.4336 z m 40.95118,33.11914 -51.38086,5.43164 20.47656,16.56055 51.37891,-5.43164 z m 40.89648,33.07617 -51.37891,5.4336 20.52735,16.60156 51.3789,-5.43359 z m 40.95313,33.11915 -51.38086,5.43359 20.47461,16.55859 51.3789,-5.43359 z m 40.89648,33.07812 -51.37891,5.43164 20.52735,16.60156 51.3789,-5.43359 z m 40.95117,33.11719 -51.3789,5.43359 20.4746,16.5586 51.37891,-5.43165 z m 40.89844,33.07617 -51.38086,5.43359 20.47656,16.5586 51.37891,-5.4316 z m 40.95117,33.11919 -51.37891,5.4335 20.47266,16.5586 51.38091,-5.4336 z m 40.89846,33.0781 -51.38088,5.4316 20.47656,16.5606 14.34372,-1.5176 37.0352,-3.916 z m 40.8965,33.0761 -51.3789,5.4317 20.5273,16.6016 51.3789,-5.4317 z m 40.9531,33.1172 -51.3809,5.4336 20.4746,16.5606 51.3789,-5.4336 z m 40.8965,33.0801 -51.3789,5.4317 20.5273,16.6015 51.3789,-5.4336 z m 40.9511,33.1172 -51.3789,5.4316 20.4746,16.5606 51.379,-5.4336 z m 40.8985,33.0762 -51.3809,5.4316 20.5274,16.6016 51.3808,-5.4317 z m 40.9512,33.1191 -51.379,5.4336 20.4727,16.5566 51.3789,-5.4316 z m 40.8984,33.0762 -51.3809,5.4336 20.5274,16.6015 51.3808,-5.4336 z m 40.9492,33.1191 -51.3789,5.4317 20.4746,16.5605 51.3809,-5.4336 z m 40.8984,33.0762 -51.3789,5.4316 20.5274,16.6016 51.3789,-5.4316 z m 40.9512,33.1191 -51.3789,5.4336 20.4746,16.5586 51.3789,-5.4336 z m 40.8985,33.0762 -51.3789,5.4336 2.2167,1.793 h 58.0977 z" /></g></g></svg>
