<?xml version="1.0" encoding="UTF-8" standalone="no"?>
<!-- Created with Inkscape (http://www.inkscape.org/) -->

<svg
   version="1.1"
   id="svg2798"
   width="300.00003"
   height="10.959999"
   viewBox="0 0 300.00003 10.959999"
   xmlns="http://www.w3.org/2000/svg"
   xmlns:svg="http://www.w3.org/2000/svg">
  <defs
     id="defs2802" />
  <g
     id="g2806"
     transform="matrix(0.31999998,0,0,0.31999998,-795.99521,-849.07073)">
    <path
       id="path35462"
       clip-path="none"
       style="fill:#f7970d;fill-opacity:1;fill-rule:nonzero;stroke:none;stroke-width:0.625"
       d="m 3400.2978,2687.5962 h 24.6875 v -24.6875 z m -49.375,0 h 24.75 l 34.25,-34.25 h -24.75 z m -49.3125,0 h 24.6875 l 34.25,-34.25 h -24.6875 z m -49.3751,0 h 24.7501 l 34.25,-34.25 h -24.75 z m -49.3125,0 h 24.6875 l 34.25,-34.25 h -24.6875 z m -49.375,0 h 24.7501 l 34.2499,-34.25 h -24.75 z m -49.3125,0 h 24.6876 l 34.2499,-34.25 h -24.6875 z m -49.375,0 h 24.7501 l 34.2499,-34.25 h -24.75 z m -49.3125,0 h 24.6875 l 34.25,-34.25 h -24.6875 z m -49.375,0 h 24.75 l 34.25,-34.25 h -24.75 z m -49.3125,0 h 24.6875 l 34.25,-34.25 h -24.6875 z m -49.375,0 h 24.75 l 34.25,-34.25 h -24.75 z m -49.3125,0 h 24.6875 l 34.25,-34.25 h -24.6875 z m -49.375,0 h 24.75 l 34.25,-34.25 h -24.75 z m -49.3125,0 h 24.6875 l 34.25,-34.25 h -24.6875 z m -49.375,0 h 24.75 l 34.25,-34.25 h -24.75 z m -49.3125,0 h 24.6875 l 34.25,-34.25 h -24.6875 z m -49.3125,0 h 24.6875 l 34.25,-34.25 h -24.6875 z m -49.375,0 h 24.6875 l 34.25,-34.25 h -24.6875 z m -24.625,0 34.25,-34.25 h -24.6875 l -9.5625,9.5625 z" />
    <g
       id="g37665">
      <g
         id="g37663"
         transform="translate(-2.1699044e-5,3.0185856e-5)" />
    </g>
  </g>
</svg>
