<?xml version="1.0" encoding="UTF-8" standalone="no"?>
<!-- Created with Inkscape (http://www.inkscape.org/) -->

<svg
   width="1849.3385"
   height="67.5625"
   viewBox="0 0 1849.3385 67.5625"
   version="1.1"
   id="svg1"
   xml:space="preserve"
   inkscape:version="1.2.2 (b0a8486541, 2022-12-01)"
   sodipodi:docname="listra-saiba-mais.svg"
   xmlns:inkscape="http://www.inkscape.org/namespaces/inkscape"
   xmlns:sodipodi="http://sodipodi.sourceforge.net/DTD/sodipodi-0.dtd"
   xmlns="http://www.w3.org/2000/svg"
   xmlns:svg="http://www.w3.org/2000/svg"><sodipodi:namedview
     id="namedview1"
     pagecolor="#505050"
     bordercolor="#ffffff"
     borderopacity="1"
     inkscape:showpageshadow="0"
     inkscape:pageopacity="0"
     inkscape:pagecheckerboard="1"
     inkscape:deskcolor="#d1d1d1"
     inkscape:document-units="px"
     inkscape:zoom="0.46543502"
     inkscape:cx="1015.1793"
     inkscape:cy="-68.752884"
     inkscape:window-width="1920"
     inkscape:window-height="1011"
     inkscape:window-x="0"
     inkscape:window-y="0"
     inkscape:window-maximized="1"
     inkscape:current-layer="g1"
     showgrid="false" /><defs
     id="defs1"><clipPath
       clipPathUnits="userSpaceOnUse"
       id="clipPath2"><path
         d="M 0,0 H 6000 V 3375 H 0 Z"
         transform="scale(0.31999999)"
         clip-rule="evenodd"
         id="path2" /></clipPath><clipPath
       clipPathUnits="userSpaceOnUse"
       id="clipPath4"><path
         d="M 0,0 H 6000 V 3375 H 0 Z"
         transform="scale(0.31999999)"
         clip-rule="evenodd"
         id="path4" /></clipPath><clipPath
       clipPathUnits="userSpaceOnUse"
       id="clipPath32512"><path
         d="m 105.3375,2285.2046 h 5825 v 212.5 h -5825 z"
         transform="matrix(0.25955226,0,0,0.25955226,-33.330909,-593.13003)"
         clip-rule="evenodd"
         id="path32512" /></clipPath><clipPath
       clipPathUnits="userSpaceOnUse"
       id="clipPath32514"><path
         d="m 105.3375,2285.2046 h 5825 v 212.5 h -5825 z"
         transform="matrix(0.25955226,0,0,0.25955226,-33.330909,-593.13003)"
         clip-rule="evenodd"
         id="path32514" /></clipPath><clipPath
       clipPathUnits="userSpaceOnUse"
       id="clipPath32516"><path
         d="m 105.3375,2285.2046 h 5825 v 212.5 h -5825 z"
         transform="matrix(0.25955226,0,0,0.25955226,-33.330909,-593.13003)"
         clip-rule="evenodd"
         id="path32516" /></clipPath><clipPath
       clipPathUnits="userSpaceOnUse"
       id="clipPath32518"><path
         d="m 105.3375,2285.2046 h 5825 v 212.5 h -5825 z"
         transform="matrix(0.25955226,0,0,0.25955226,-33.330909,-593.13003)"
         clip-rule="evenodd"
         id="path32518" /></clipPath><clipPath
       clipPathUnits="userSpaceOnUse"
       id="clipPath32520"><path
         d="m 105.3375,2285.2046 h 5825 v 212.5 h -5825 z"
         transform="matrix(0.25955226,0,0,0.25955226,-33.330909,-593.13003)"
         clip-rule="evenodd"
         id="path32520" /></clipPath><clipPath
       clipPathUnits="userSpaceOnUse"
       id="clipPath32522"><path
         d="m 105.3375,2285.2046 h 5825 v 212.5 h -5825 z"
         transform="matrix(0.25955226,0,0,0.25955226,-33.330909,-593.13003)"
         clip-rule="evenodd"
         id="path32522" /></clipPath><clipPath
       clipPathUnits="userSpaceOnUse"
       id="clipPath32524"><path
         d="m 105.3375,2285.2046 h 5825 v 212.5 h -5825 z"
         transform="matrix(0.25955226,0,0,0.25955226,-33.330909,-593.13003)"
         clip-rule="evenodd"
         id="path32524" /></clipPath><clipPath
       clipPathUnits="userSpaceOnUse"
       id="clipPath32526"><path
         d="m 105.3375,2285.2046 h 5825 v 212.5 h -5825 z"
         transform="matrix(0.25955226,0,0,0.25955226,-33.330909,-593.13003)"
         clip-rule="evenodd"
         id="path32526" /></clipPath><clipPath
       clipPathUnits="userSpaceOnUse"
       id="clipPath32528"><path
         d="m 105.3375,2285.2046 h 5825 v 212.5 h -5825 z"
         transform="matrix(0.25955226,0,0,0.25955226,-33.330909,-593.13003)"
         clip-rule="evenodd"
         id="path32528" /></clipPath><clipPath
       clipPathUnits="userSpaceOnUse"
       id="clipPath32530"><path
         d="m 105.3375,2285.2046 h 5825 v 212.5 h -5825 z"
         transform="matrix(0.25955226,0,0,0.25955226,-33.330909,-593.13003)"
         clip-rule="evenodd"
         id="path32530" /></clipPath><clipPath
       clipPathUnits="userSpaceOnUse"
       id="clipPath32532"><path
         d="m 105.3375,2285.2046 h 5825 v 212.5 h -5825 z"
         transform="matrix(0.25955226,0,0,0.25955226,-33.330909,-593.13003)"
         clip-rule="evenodd"
         id="path32532" /></clipPath><clipPath
       clipPathUnits="userSpaceOnUse"
       id="clipPath32534"><path
         d="m 105.3375,2285.2046 h 5825 v 212.5 h -5825 z"
         transform="matrix(0.25955226,0,0,0.25955226,-33.330909,-593.13003)"
         clip-rule="evenodd"
         id="path32534" /></clipPath><clipPath
       clipPathUnits="userSpaceOnUse"
       id="clipPath32536"><path
         d="m 105.3375,2285.2046 h 5825 v 212.5 h -5825 z"
         transform="matrix(0.25955226,0,0,0.25955226,-33.330909,-593.13003)"
         clip-rule="evenodd"
         id="path32536" /></clipPath><clipPath
       clipPathUnits="userSpaceOnUse"
       id="clipPath32538"><path
         d="m 105.3375,2285.2046 h 5825 v 212.5 h -5825 z"
         transform="matrix(0.25955226,0,0,0.25955226,-33.330909,-593.13003)"
         clip-rule="evenodd"
         id="path32538" /></clipPath><clipPath
       clipPathUnits="userSpaceOnUse"
       id="clipPath32540"><path
         d="m 105.3375,2285.2046 h 5825 v 212.5 h -5825 z"
         transform="matrix(0.25955226,0,0,0.25955226,-33.330909,-593.13003)"
         clip-rule="evenodd"
         id="path32540" /></clipPath><clipPath
       clipPathUnits="userSpaceOnUse"
       id="clipPath32542"><path
         d="m 105.3375,2285.2046 h 5825 v 212.5 h -5825 z"
         transform="matrix(0.25955226,0,0,0.25955226,-33.330909,-593.13003)"
         clip-rule="evenodd"
         id="path32542" /></clipPath><clipPath
       clipPathUnits="userSpaceOnUse"
       id="clipPath32544"><path
         d="m 105.3375,2285.2046 h 5825 v 212.5 h -5825 z"
         transform="matrix(0.25955226,0,0,0.25955226,-33.330909,-593.13003)"
         clip-rule="evenodd"
         id="path32544" /></clipPath><clipPath
       clipPathUnits="userSpaceOnUse"
       id="clipPath32546"><path
         d="m 105.3375,2285.2046 h 5825 v 212.5 h -5825 z"
         transform="matrix(0.25955226,0,0,0.25955226,-33.330909,-593.13003)"
         clip-rule="evenodd"
         id="path32546" /></clipPath><clipPath
       clipPathUnits="userSpaceOnUse"
       id="clipPath32548"><path
         d="m 105.3375,2285.2046 h 5825 v 212.5 h -5825 z"
         transform="matrix(0.25955226,0,0,0.25955226,-33.330909,-593.13003)"
         clip-rule="evenodd"
         id="path32548" /></clipPath><clipPath
       clipPathUnits="userSpaceOnUse"
       id="clipPath32550"><path
         d="m 105.3375,2285.2046 h 5825 v 212.5 h -5825 z"
         transform="matrix(0.25955226,0,0,0.25955226,-33.330909,-593.13003)"
         clip-rule="evenodd"
         id="path32550" /></clipPath></defs><g
     id="g1"
     inkscape:groupmode="layer"
     inkscape:label="1"
     transform="translate(-41.093384,-731.26544)"><path
       id="path32511"
       d="M 0,54.799999 54.799999,0 H 15.3 L 0,15.3 Z"
       style="fill:#f7970d;fill-opacity:1;fill-rule:nonzero;stroke:none"
       transform="matrix(1.2328923,0,0,1.2328923,41.093421,731.26547)"
       clip-path="url(#clipPath32512)" /><path
       id="path32513"
       d="m 39.400002,54.799999 h 39.5 L 133.7,0 H 94.199997 Z"
       style="fill:#f7970d;fill-opacity:1;fill-rule:nonzero;stroke:none"
       transform="matrix(1.2328923,0,0,1.2328923,41.093421,731.26547)"
       clip-path="url(#clipPath32514)" /><path
       id="path32515"
       d="m 118.4,54.799999 h 39.49999 L 212.7,0 h -39.5 z"
       style="fill:#f7970d;fill-opacity:1;fill-rule:nonzero;stroke:none"
       transform="matrix(1.2328923,0,0,1.2328923,41.093421,731.26547)"
       clip-path="url(#clipPath32516)" /><path
       id="path32517"
       d="m 197.3,54.799999 h 39.5 L 291.60001,0 h -39.5 z"
       style="fill:#f7970d;fill-opacity:1;fill-rule:nonzero;stroke:none"
       transform="matrix(1.2328923,0,0,1.2328923,41.093421,731.26547)"
       clip-path="url(#clipPath32518)" /><path
       id="path32519"
       d="m 276.20001,54.799999 h 39.59998 L 370.60001,0 H 331 Z"
       style="fill:#f7970d;fill-opacity:1;fill-rule:nonzero;stroke:none"
       transform="matrix(1.2328923,0,0,1.2328923,41.093421,731.26547)"
       clip-path="url(#clipPath32520)" /><path
       id="path32521"
       d="m 355.20001,54.799999 h 39.5 L 449.5,0 H 410 Z"
       style="fill:#f7970d;fill-opacity:1;fill-rule:nonzero;stroke:none"
       transform="matrix(1.2328923,0,0,1.2328923,41.093421,731.26547)"
       clip-path="url(#clipPath32522)" /><path
       id="path32523"
       d="m 434.10001,54.799999 h 39.6 L 528.5,0 h -39.60001 z"
       style="fill:#f7970d;fill-opacity:1;fill-rule:nonzero;stroke:none"
       transform="matrix(1.2328923,0,0,1.2328923,41.093421,731.26547)"
       clip-path="url(#clipPath32524)" /><path
       id="path32525"
       d="m 513.09998,54.799999 h 39.5 L 607.40002,0 h -39.5 z"
       style="fill:#f7970d;fill-opacity:1;fill-rule:nonzero;stroke:none"
       transform="matrix(1.2328923,0,0,1.2328923,41.093421,731.26547)"
       clip-path="url(#clipPath32526)" /><path
       id="path32527"
       d="m 592,54.799999 h 39.59998 L 686.40002,0 h -39.60003 z"
       style="fill:#f7970d;fill-opacity:1;fill-rule:nonzero;stroke:none"
       transform="matrix(1.2328923,0,0,1.2328923,41.093421,731.26547)"
       clip-path="url(#clipPath32528)" /><path
       id="path32529"
       d="m 671,54.799999 h 39.5 L 765.29999,0 h -39.5 z"
       style="fill:#f7970d;fill-opacity:1;fill-rule:nonzero;stroke:none"
       transform="matrix(1.2328923,0,0,1.2328923,41.093421,731.26547)"
       clip-path="url(#clipPath32530)" /><path
       id="path32531"
       d="M 749.90002,54.799999 H 789.5 L 844.29999,0 h -39.59998 z"
       style="fill:#f7970d;fill-opacity:1;fill-rule:nonzero;stroke:none"
       transform="matrix(1.2328923,0,0,1.2328923,41.093421,731.26547)"
       clip-path="url(#clipPath32532)" /><path
       id="path32533"
       d="m 828.90002,54.799999 h 39.5 L 923.20001,0 h -39.5 z"
       style="fill:#f7970d;fill-opacity:1;fill-rule:nonzero;stroke:none"
       transform="matrix(1.2328923,0,0,1.2328923,41.093421,731.26547)"
       clip-path="url(#clipPath32534)" /><path
       id="path32535"
       d="m 907.79999,54.799999 h 39.60003 L 1002.2,0 h -39.60002 z"
       style="fill:#f7970d;fill-opacity:1;fill-rule:nonzero;stroke:none"
       transform="matrix(1.2328923,0,0,1.2328923,41.093421,731.26547)"
       clip-path="url(#clipPath32536)" /><path
       id="path32537"
       d="m 986.79999,54.799999 h 39.50011 L 1081.1,0 h -39.5 z"
       style="fill:#f7970d;fill-opacity:1;fill-rule:nonzero;stroke:none"
       transform="matrix(1.2328923,0,0,1.2328923,41.093421,731.26547)"
       clip-path="url(#clipPath32538)" /><path
       id="path32539"
       d="m 1065.7,54.799999 h 39.6001 L 1160.1,0 h -39.6 z"
       style="fill:#f7970d;fill-opacity:1;fill-rule:nonzero;stroke:none"
       transform="matrix(1.2328923,0,0,1.2328923,41.093421,731.26547)"
       clip-path="url(#clipPath32540)" /><path
       id="path32541"
       d="m 1144.7,54.799999 h 39.5 L 1239,0 h -39.5 z"
       style="fill:#f7970d;fill-opacity:1;fill-rule:nonzero;stroke:none"
       transform="matrix(1.2328923,0,0,1.2328923,41.093421,731.26547)"
       clip-path="url(#clipPath32542)" /><path
       id="path32543"
       d="m 1223.6,54.799999 h 39.6 L 1318,0 h -39.6 z"
       style="fill:#f7970d;fill-opacity:1;fill-rule:nonzero;stroke:none"
       transform="matrix(1.2328923,0,0,1.2328923,41.093421,731.26547)"
       clip-path="url(#clipPath32544)" /><path
       id="path32545"
       d="m 1302.6,54.799999 h 39.5 L 1396.9,0 h -39.5 z"
       style="fill:#f7970d;fill-opacity:1;fill-rule:nonzero;stroke:none"
       transform="matrix(1.2328923,0,0,1.2328923,41.093421,731.26547)"
       clip-path="url(#clipPath32546)" /><path
       id="path32547"
       d="m 1381.5,54.799999 h 39.6 L 1475.9,0 h -39.5999 z"
       style="fill:#f7970d;fill-opacity:1;fill-rule:nonzero;stroke:none"
       transform="matrix(1.2328923,0,0,1.2328923,41.093421,731.26547)"
       clip-path="url(#clipPath32548)" /><path
       id="path32549"
       d="M 1460.5,54.799999 H 1500 V 15.3 Z"
       style="fill:#f7970d;fill-opacity:1;fill-rule:nonzero;stroke:none"
       transform="matrix(1.2328923,0,0,1.2328923,41.093421,731.26547)"
       clip-path="url(#clipPath32550)" /></g></svg>
